<?xml version="1.0" standalone="no"?>
<!DOCTYPE svg PUBLIC "-//W3C//DTD SVG 20010904//EN"
 "http://www.w3.org/TR/2001/REC-SVG-20010904/DTD/svg10.dtd">
<svg version="1.0" xmlns="http://www.w3.org/2000/svg"
 width="5000.000000pt" height="5000.000000pt" viewBox="0 0 5000.000000 5000.000000"
 preserveAspectRatio="xMidYMid meet">

<g transform="translate(0.000000,5000.000000) scale(0.100000,-0.100000)"
fill="#000000" stroke="none">
<path d="M39180 49020 c-36 -4 -688 -8 -1450 -9 -762 -1 -1869 -6 -2460 -11
-2149 -18 -16779 -32 -22770 -22 -1551 3 -1771 5 -1813 19 -26 8 -59 12 -72 9
-25 -6 -55 -51 -55 -81 0 -8 -4 -15 -10 -15 -15 0 -13 -177 2 -182 10 -4 14
-367 18 -1664 5 -1814 1 -1690 63 -1715 21 -9 63 -9 175 0 105 8 849 11 2582
11 1339 0 2658 3 2930 6 409 4 15523 7 19010 3 564 0 1711 2 2550 6 l1525 6
23 25 c12 14 22 34 22 45 0 10 5 19 10 19 15 0 13 107 -2 112 -10 4 -13 335
-13 1613 0 1278 3 1609 13 1612 13 5 18 109 5 115 -5 2 -16 20 -26 41 -29 64
-85 76 -257 57z"/>
<path d="M10635 37123 c-11 -2 -37 -22 -57 -44 l-38 -40 0 -9364 c0 -6237 3
-9365 10 -9365 7 0 10 -457 10 -1352 0 -1352 11 -2262 31 -2583 6 -93 15 -240
20 -325 8 -147 25 -297 48 -420 11 -62 26 -182 40 -315 5 -49 16 -119 25 -155
9 -36 21 -105 26 -155 5 -49 16 -117 25 -150 9 -33 22 -98 30 -145 8 -47 21
-119 30 -160 8 -41 22 -115 31 -165 9 -49 19 -110 24 -135 4 -25 19 -81 33
-125 14 -44 32 -119 41 -167 9 -49 26 -112 37 -140 26 -64 59 -190 59 -227 1
-14 12 -57 26 -96 14 -38 35 -101 46 -140 11 -38 37 -126 59 -195 21 -69 41
-143 45 -164 4 -22 36 -112 71 -200 35 -89 74 -199 87 -246 13 -47 37 -113 55
-148 17 -34 41 -88 52 -119 11 -32 27 -71 34 -88 26 -58 57 -140 67 -175 6
-19 21 -57 34 -85 12 -27 48 -108 80 -180 31 -71 65 -149 75 -172 10 -23 19
-46 19 -52 0 -16 63 -151 244 -521 30 -63 69 -138 84 -165 16 -28 33 -61 37
-75 4 -14 18 -41 30 -60 11 -19 29 -56 39 -82 9 -26 28 -62 40 -81 13 -18 38
-60 55 -93 18 -32 38 -66 45 -74 7 -8 34 -57 60 -109 41 -83 108 -205 136
-251 6 -8 16 -28 24 -45 7 -16 34 -61 60 -100 25 -38 69 -107 98 -153 175
-274 392 -592 478 -698 22 -27 47 -61 54 -75 28 -53 71 -115 110 -158 23 -25
48 -55 56 -67 84 -120 282 -374 356 -454 28 -30 56 -64 62 -75 14 -26 100
-128 192 -228 42 -45 101 -113 132 -152 30 -38 68 -81 83 -95 15 -14 73 -77
128 -140 133 -150 506 -535 610 -628 45 -40 111 -102 147 -136 79 -75 279
-255 352 -315 29 -23 91 -75 137 -115 45 -39 107 -89 136 -111 29 -22 84 -66
122 -97 119 -101 330 -271 395 -321 59 -45 100 -75 241 -179 32 -24 86 -66
120 -94 34 -28 87 -65 117 -83 30 -18 84 -54 120 -81 36 -27 90 -64 120 -81
30 -18 71 -45 90 -59 19 -15 51 -35 70 -45 19 -10 87 -52 150 -94 128 -85 121
-81 245 -146 50 -26 104 -58 122 -71 17 -13 127 -72 245 -131 117 -59 238
-124 268 -143 30 -20 87 -50 125 -66 39 -16 118 -55 178 -86 59 -31 167 -84
240 -118 72 -34 141 -66 152 -72 11 -6 27 -15 35 -19 38 -21 169 -77 205 -89
22 -7 103 -43 180 -80 77 -37 172 -77 210 -90 39 -12 86 -31 106 -41 20 -10
65 -28 100 -39 68 -23 202 -75 232 -92 24 -12 568 -192 627 -207 25 -7 54 -16
65 -20 49 -21 109 -39 295 -86 36 -10 70 -20 75 -24 13 -9 100 -35 210 -62 50
-12 95 -25 100 -28 6 -3 60 -16 120 -29 178 -37 227 -48 290 -67 71 -20 159
-40 270 -60 158 -28 200 -37 210 -46 5 -5 21 -9 36 -9 15 0 70 -11 123 -25 54
-14 141 -30 194 -35 53 -5 142 -16 197 -25 55 -8 150 -22 210 -29 61 -8 122
-17 135 -21 32 -8 181 -23 330 -34 63 -5 156 -14 205 -19 321 -38 601 -51
1125 -53 442 -1 1173 15 1335 31 117 11 403 37 495 45 30 2 105 11 165 20 142
20 322 44 405 55 36 4 78 13 93 19 16 6 44 11 64 11 56 0 302 44 438 79 22 6
56 11 76 11 20 0 39 3 43 7 4 4 37 13 74 20 108 20 202 40 272 57 36 9 89 21
118 26 48 8 199 51 247 71 11 4 36 11 55 14 19 4 49 11 65 15 17 5 71 17 120
26 50 9 106 22 125 29 19 7 62 20 95 30 33 10 92 29 130 42 39 13 102 33 140
45 39 11 115 36 170 55 55 19 150 50 210 70 61 19 126 41 145 49 19 7 85 32
145 54 61 23 118 46 129 52 10 5 52 21 93 34 42 14 108 40 147 58 123 59 162
76 169 76 4 0 53 23 109 51 57 28 132 61 168 75 36 14 101 42 145 64 44 21
132 62 195 90 145 65 686 336 722 361 15 11 67 40 115 65 48 25 95 52 103 59
8 7 54 31 102 54 48 23 112 61 141 85 30 24 71 52 93 62 77 36 211 116 304
184 52 38 119 84 148 102 93 58 195 127 272 183 98 71 167 119 341 238 79 54
169 118 199 143 30 24 75 59 100 76 25 18 65 49 90 69 25 21 95 77 155 125 61
47 130 106 155 129 25 23 58 49 73 59 16 10 61 48 100 84 40 37 89 80 110 96
21 15 80 67 130 115 51 47 119 109 152 136 89 74 825 806 860 855 17 24 100
118 185 209 85 91 184 204 220 250 36 46 83 105 105 130 60 68 117 140 152
191 17 25 55 72 84 106 95 107 174 207 228 284 28 41 70 100 92 130 55 76 107
152 152 224 21 34 46 70 56 81 38 44 275 395 310 460 9 17 28 46 42 65 14 19
34 53 45 74 10 22 55 95 99 162 118 180 153 237 196 322 22 42 46 83 53 92 7
8 22 33 32 55 45 91 100 193 130 240 17 28 35 61 39 75 11 39 46 117 92 206
180 352 240 482 288 619 10 28 35 84 55 125 21 41 43 93 50 115 7 22 23 60 35
85 13 25 36 83 53 130 17 47 41 105 54 130 13 25 30 70 37 100 7 30 28 91 46
135 18 44 40 105 50 135 10 30 21 60 24 65 4 6 15 37 25 70 10 33 23 74 28 90
34 107 61 198 72 250 8 33 30 112 49 175 19 63 49 174 66 245 18 72 43 173 57
225 13 52 28 115 34 140 5 25 16 74 25 110 9 36 20 86 25 112 5 27 11 52 14
56 8 13 34 149 42 217 3 33 16 94 27 135 19 71 23 98 48 285 11 76 50 283 71
370 18 74 26 150 27 236 1 47 5 99 11 115 5 16 14 74 20 129 5 55 17 141 25
190 15 83 24 171 54 530 23 280 31 633 19 860 -15 277 -13 440 6 580 38 277
38 194 32 9150 -4 4796 -7 8846 -8 9000 -1 192 3 305 12 361 16 95 5 140 -38
151 -13 3 -97 1 -186 -6 -111 -8 -648 -12 -1746 -12 -872 0 -1600 -3 -1618 -6
-26 -4 -37 -13 -49 -39 -14 -29 -15 -41 -3 -101 11 -56 14 -1456 16 -7648 2
-5368 6 -7590 14 -7615 8 -25 10 -610 7 -1980 -4 -1625 -7 -1986 -20 -2195
-26 -400 -46 -619 -68 -730 -5 -27 -12 -83 -15 -125 -3 -41 -7 -91 -10 -110
-3 -19 -11 -84 -19 -145 -7 -60 -25 -180 -39 -265 -14 -85 -31 -186 -37 -225
-7 -38 -25 -128 -40 -200 -16 -71 -29 -139 -29 -150 0 -11 -11 -54 -24 -95
-13 -41 -32 -120 -41 -175 -17 -96 -41 -180 -63 -221 -6 -10 -16 -48 -22 -83
-6 -35 -25 -98 -41 -140 -17 -42 -41 -123 -55 -181 -14 -58 -33 -123 -44 -145
-10 -22 -29 -74 -43 -116 -14 -42 -39 -103 -55 -136 -17 -33 -38 -88 -47 -122
-19 -76 -101 -285 -156 -398 -21 -46 -39 -88 -39 -94 0 -6 -9 -24 -21 -40 -11
-16 -31 -61 -45 -101 -14 -40 -45 -113 -69 -163 -323 -661 -416 -843 -459
-899 -27 -36 -84 -130 -117 -196 -9 -19 -42 -71 -73 -115 -30 -44 -85 -124
-123 -179 -37 -54 -72 -106 -78 -115 -5 -9 -26 -38 -46 -66 -20 -27 -46 -68
-59 -90 -13 -22 -42 -62 -65 -90 -22 -27 -73 -93 -113 -147 -73 -99 -315 -349
-376 -390 -19 -13 -77 -56 -129 -95 -52 -40 -97 -73 -99 -73 -4 0 -74 -38
-233 -128 -30 -16 -189 -68 -280 -91 -98 -24 -322 -34 -453 -21 -58 6 -140 25
-215 49 -67 21 -147 46 -177 56 -64 20 -166 69 -195 95 -11 9 -50 34 -86 54
-122 67 -309 273 -453 499 -35 55 -59 216 -80 542 -38 596 -39 699 -32 2655 3
1048 6 4039 6 6648 0 4277 -1 4745 -15 4773 -23 43 -55 52 -160 44 -49 -4
-254 -7 -455 -6 -633 1 -2351 2 -2455 1 -55 -1 -190 4 -300 10 l-200 11 -21
-24 -21 -24 3 -9191 c2 -6519 6 -9222 14 -9298 12 -119 7 -158 -22 -191 -28
-30 -44 -31 -488 -43 -212 -5 -434 -15 -495 -20 -99 -10 -885 -31 -1145 -32
-355 0 -1038 26 -1215 47 -71 8 -179 19 -240 24 -150 13 -265 28 -425 56 -74
13 -157 27 -185 31 -98 13 -214 85 -241 149 -7 17 -21 62 -30 101 -17 65 -18
248 -20 3009 -5 6053 -4 10172 2 10216 8 55 -14 109 -54 135 -22 15 -42 16
-161 9 -75 -5 -291 -6 -481 -4 -466 5 -1298 5 -2085 -1 -357 -3 -684 -2 -725
3 -67 6 -78 5 -98 -12 l-23 -20 -4 -583 c-2 -321 -6 -882 -10 -1248 -3 -366
-7 -2550 -10 -4855 -2 -2573 -7 -4200 -13 -4215 -14 -36 -16 -454 -3 -479 17
-31 18 -241 1 -271 -38 -70 -93 -69 -191 5 -68 50 -238 166 -306 207 -41 26
-102 67 -171 115 -34 24 -64 43 -67 43 -4 0 -31 19 -60 43 -30 23 -82 62 -115
87 -34 25 -78 59 -98 76 -20 17 -55 43 -77 59 -22 16 -60 48 -85 71 -54 50
-151 129 -279 227 -156 119 -782 751 -956 965 -29 37 -72 87 -95 112 -23 24
-60 71 -83 103 -23 32 -75 101 -116 155 -40 53 -84 113 -97 132 -13 19 -41 60
-64 90 -22 30 -63 89 -91 130 -28 41 -65 93 -82 115 -18 22 -48 65 -68 95 -20
30 -44 68 -55 84 -10 16 -23 36 -29 45 -5 8 -29 43 -53 77 -23 34 -77 120
-120 190 -74 122 -146 235 -198 314 -12 19 -32 58 -43 85 -10 28 -43 88 -71
135 -28 47 -74 132 -102 190 -27 58 -78 164 -113 235 -78 164 -131 282 -162
365 -13 36 -42 100 -64 143 -21 43 -39 85 -39 92 0 23 -30 107 -57 160 -35 70
-118 310 -144 416 -5 20 -34 112 -64 203 -31 92 -65 208 -76 259 -11 51 -27
119 -35 152 -9 33 -21 96 -29 140 -7 44 -20 109 -29 145 -17 67 -39 169 -56
255 -5 28 -16 79 -24 115 -30 139 -55 268 -65 345 -6 44 -18 121 -26 170 -14
82 -22 160 -55 545 -6 69 -15 231 -20 360 -6 129 -15 321 -20 425 -7 127 -12
3151 -15 9145 -3 4925 -7 8988 -11 9028 -5 61 -2 79 16 116 30 64 71 81 169
71 109 -10 9309 -6 11541 5 1031 5 1945 10 2031 10 154 0 157 0 182 25 l25 26
-6 1582 c-7 1622 -6 1751 3 1872 10 120 161 107 -1252 105 -675 0 -1932 -4
-2793 -8 -2548 -11 -13225 -2 -13400 12 -30 2 -64 2 -75 -1z"/>
</g>
</svg>
